<svg width="338" height="149" viewBox="0 0 338 149" fill="none" xmlns="http://www.w3.org/2000/svg">
<g clip-path="url(#clip0_147_14)">
<path d="M139.83 80.38C142.79 80.38 144.15 81.92 144.82 83.96H147.31C146.76 80.83 144.36 78.31 139.94 78.31C134.24 78.31 131.41 82.92 131.41 88.01C131.41 93.1 134.24 97.56 139.85 97.56C144.11 97.56 146.48 95.19 147.31 92.01H144.81C144.11 93.83 142.84 95.49 139.95 95.49C135.62 95.49 134.02 91.61 134.02 87.93C134.02 84.25 135.71 80.38 139.85 80.38H139.83Z" fill="#FFEB66"/>
<path d="M161.27 89.78C161.27 86.87 159.83 83.33 155.42 83.33C151.27 83.33 149.22 86.57 149.22 90.63C149.22 94.15 150.97 97.64 155.27 97.64C159.01 97.64 160.48 95.3 161.02 93.55H158.64C158.2 94.55 157.5 95.66 155.34 95.66C153.02 95.66 151.62 93.69 151.6 90.91H161.23C161.27 90.54 161.27 90.19 161.27 89.78ZM151.68 89.25C151.92 86.87 152.98 85.2 155.38 85.2C157.78 85.2 158.85 87.01 158.87 89.25H151.68Z" fill="#FFEB66"/>
<path d="M172.83 97.32H175.19V88.53C175.19 84.9 173.19 83.33 170.62 83.33C168.05 83.33 166.86 84.72 166.32 85.9C166.32 85.49 166.29 84.06 166.23 83.65H163.94C163.97 84.71 163.97 85.91 163.97 87.09V97.31H166.33V90.08C166.33 87.33 167.37 85.37 169.94 85.37C172.03 85.37 172.83 86.76 172.83 88.83V97.32Z" fill="#FFEB66"/>
<path d="M179.3 79.62V83.65H176.94V85.57H179.3V94.13C179.3 96.4 180.24 97.5 182.37 97.5C183.02 97.5 183.83 97.47 184.41 97.25V95.47C184.04 95.57 183.55 95.58 183.22 95.58C181.98 95.58 181.66 94.9 181.66 93.57V85.57H184.68V83.65H181.66V79.62H179.3Z" fill="#FFEB66"/>
<path d="M189.08 86.44C189.08 85.11 189.04 84.04 189.01 83.65H186.7C186.7 84.38 186.73 85.45 186.73 87.36V97.31H189.09V90.68C189.09 87.22 190.89 85.76 193.69 85.68V83.33C191.43 83.4 189.8 84.59 189.09 86.44H189.08Z" fill="#FFEB66"/>
<path d="M194.67 90.51C194.67 94.62 197.04 97.65 200.95 97.65C205.13 97.65 207.38 94.4 207.38 90.47C207.38 86.18 204.89 83.34 201.1 83.34C196.98 83.34 194.66 86.48 194.66 90.51H194.67ZM201 85.3C203.56 85.3 204.96 87.42 204.96 90.49C204.96 93.56 203.55 95.66 201.05 95.66C198.55 95.66 197.1 93.47 197.1 90.48C197.1 87.49 198.44 85.3 201 85.3Z" fill="#FFEB66"/>
<path d="M225.58 77.54V85.08C225.21 84.31 224.14 83.34 221.72 83.34C217.94 83.34 215.61 86.43 215.61 90.64C215.61 94.85 217.77 97.65 221.28 97.65C223.52 97.65 224.9 96.81 225.58 95.39C225.58 95.92 225.64 96.97 225.7 97.33H227.97C227.94 96.01 227.94 94.75 227.94 93.47V77.55H225.58V77.54ZM221.78 95.64C219.63 95.64 218.06 93.86 218.06 90.56C218.06 87.26 219.55 85.34 221.96 85.34C225.04 85.34 225.67 87.26 225.67 90.29C225.67 93.32 224.97 95.64 221.77 95.64H221.78Z" fill="#FFEB66"/>
<path d="M242.69 89.78C242.69 86.87 241.25 83.33 236.84 83.33C232.69 83.33 230.64 86.57 230.64 90.63C230.64 94.15 232.39 97.64 236.69 97.64C240.43 97.64 241.9 95.3 242.44 93.55H240.06C239.62 94.55 238.92 95.66 236.76 95.66C234.44 95.66 233.04 93.69 233.02 90.91H242.65C242.69 90.54 242.69 90.19 242.69 89.78ZM233.11 89.25C233.35 86.87 234.41 85.2 236.81 85.2C239.21 85.2 240.28 87.01 240.3 89.25H233.11Z" fill="#FFEB66"/>
<path d="M267.01 92H264.51C263.81 93.82 262.54 95.48 259.65 95.48C255.32 95.48 253.72 91.6 253.72 87.92C253.72 84.24 255.41 80.37 259.55 80.37C262.51 80.37 263.87 81.91 264.54 83.95H267.03C266.48 80.82 264.08 78.3 259.66 78.3C253.96 78.3 251.13 82.91 251.13 88C251.13 93.09 253.96 97.55 259.56 97.55C263.82 97.55 266.19 95.18 267.02 92H267.01Z" fill="#FFEB66"/>
<path d="M281.65 90.46C281.65 86.17 279.16 83.33 275.37 83.33C271.25 83.33 268.93 86.47 268.93 90.5C268.93 94.53 271.3 97.64 275.21 97.64C279.39 97.64 281.64 94.39 281.64 90.46H281.65ZM271.36 90.49C271.36 87.37 272.7 85.31 275.26 85.31C277.82 85.31 279.22 87.43 279.22 90.5C279.22 93.57 277.81 95.67 275.31 95.67C272.81 95.67 271.36 93.48 271.36 90.49Z" fill="#FFEB66"/>
<path d="M293.25 88.83V97.32H295.61V88.53C295.61 84.9 293.61 83.33 291.04 83.33C288.47 83.33 287.28 84.72 286.74 85.9C286.74 85.49 286.71 84.06 286.65 83.65H284.36C284.39 84.71 284.39 85.91 284.39 87.09V97.31H286.75V90.08C286.75 87.33 287.79 85.37 290.36 85.37C292.45 85.37 293.25 86.76 293.25 88.83Z" fill="#FFEB66"/>
<path d="M302.08 79.62H299.72V83.65H297.36V85.57H299.72V94.13C299.72 96.4 300.66 97.5 302.79 97.5C303.44 97.5 304.25 97.47 304.83 97.25V95.47C304.46 95.57 303.97 95.58 303.64 95.58C302.4 95.58 302.08 94.9 302.08 93.57V85.57H305.1V83.65H302.08V79.62Z" fill="#FFEB66"/>
<path d="M314.1 83.33C311.84 83.4 310.21 84.59 309.5 86.44C309.5 85.11 309.46 84.04 309.43 83.65H307.12C307.12 84.38 307.15 85.45 307.15 87.36V97.31H309.51V90.68C309.51 87.22 311.31 85.76 314.11 85.68V83.33H314.1Z" fill="#FFEB66"/>
<path d="M321.52 83.33C317.4 83.33 315.08 86.47 315.08 90.5C315.08 94.53 317.45 97.64 321.36 97.64C325.54 97.64 327.79 94.39 327.79 90.46C327.79 86.17 325.3 83.33 321.51 83.33H321.52ZM321.47 95.67C319.01 95.67 317.52 93.48 317.52 90.49C317.52 87.5 318.86 85.31 321.42 85.31C323.98 85.31 325.38 87.43 325.38 90.5C325.38 93.57 323.97 95.67 321.47 95.67Z" fill="#FFEB66"/>
<path d="M332.89 77.54H330.53V97.32H332.89V77.54Z" fill="#FFEB66"/>
<path d="M136.71 123.06C138.95 123.06 140.33 122.22 141.01 120.8C141.01 121.33 141.07 122.38 141.13 122.74H143.4C143.37 121.42 143.37 120.16 143.37 118.88V102.96H141.01V110.5C140.64 109.73 139.57 108.76 137.15 108.76C133.37 108.76 131.04 111.85 131.04 116.06C131.04 120.27 133.2 123.07 136.71 123.07V123.06ZM137.39 110.75C140.47 110.75 141.1 112.67 141.1 115.7C141.1 118.73 140.4 121.05 137.2 121.05C135.05 121.05 133.48 119.27 133.48 115.97C133.48 112.67 134.97 110.75 137.38 110.75H137.39Z" fill="#FFEB66"/>
<path d="M157.86 118.97H155.48C155.04 119.97 154.34 121.08 152.18 121.08C149.86 121.08 148.46 119.1 148.45 116.33H158.08C158.12 115.96 158.12 115.61 158.12 115.2C158.12 112.29 156.68 108.75 152.27 108.75C148.12 108.75 146.07 111.99 146.07 116.05C146.07 119.57 147.82 123.06 152.12 123.06C155.86 123.06 157.33 120.72 157.87 118.97H157.86ZM152.23 110.61C154.56 110.61 155.7 112.42 155.72 114.66H148.53C148.77 112.28 149.83 110.61 152.23 110.61Z" fill="#FFEB66"/>
<path d="M169.5 102.95H167.14V122.73H169.5V102.95Z" fill="#FFEB66"/>
<path d="M180.9 120.95C180.93 121.78 181.02 122.43 181.12 122.74H183.38C183.3 122.35 183.19 121 183.19 119.76V113.23C183.19 110.12 181.34 108.76 178 108.75C174.07 108.75 172.91 110.92 172.73 112.8H175.01C175.26 111.73 175.64 110.6 177.93 110.6C180.49 110.6 180.87 112.07 180.87 113.28V114.44H178.54C174.48 114.44 172.08 115.83 172.08 118.88C172.08 120.96 173.46 123.05 176.68 123.05C179.33 123.05 180.42 121.85 180.9 120.94V120.95ZM174.49 118.75C174.49 116.82 175.95 116.07 178.67 116.07H180.88V116.51C180.88 118.99 180.44 121.21 177.15 121.21C175.46 121.21 174.49 120.17 174.49 118.75Z" fill="#FFEB66"/>
<path d="M202.96 119.7H202.92C202.28 117.31 199.68 109.81 197.55 103.99H193.84V122.74H196.18V115.26C196.18 112.05 196.12 107.88 195.97 105.72H196.05C196.89 108.92 200.03 117.94 201.66 122.74H203.89C206.04 116.84 209.07 108.8 209.88 105.76H209.98C209.9 107.73 209.86 111.27 209.86 114.75V122.74H212.29V103.99H208.68C206.48 109.66 203.4 117.9 202.96 119.7Z" fill="#FFEB66"/>
<path d="M221.69 108.75C217.57 108.75 215.25 111.89 215.25 115.92C215.25 119.95 217.62 123.06 221.53 123.06C225.71 123.06 227.96 119.81 227.96 115.88C227.96 111.59 225.47 108.75 221.68 108.75H221.69ZM221.64 121.08C219.18 121.08 217.69 118.89 217.69 115.9C217.69 112.91 219.03 110.72 221.59 110.72C224.15 110.72 225.55 112.84 225.55 115.91C225.55 118.98 224.14 121.08 221.64 121.08Z" fill="#FFEB66"/>
<path d="M235.19 120.54H235.16C234.74 118.83 233.4 114.66 231.56 109.07H229.03L233.8 122.73H236.4L241.43 109.07H239.03C236.98 114.93 235.53 119.02 235.19 120.54Z" fill="#FFEB66"/>
<path d="M245.83 102.95H243.47V105.9H245.83V102.95Z" fill="#FFEB66"/>
<path d="M245.83 109.07H243.47V122.73H245.83V109.07Z" fill="#FFEB66"/>
<path d="M251.87 102.95H249.51V122.73H251.87V102.95Z" fill="#FFEB66"/>
<path d="M257.9 102.95H255.54V105.9H257.9V102.95Z" fill="#FFEB66"/>
<path d="M257.9 109.07H255.54V122.73H257.9V109.07Z" fill="#FFEB66"/>
<path d="M270.58 102.95V110.49C270.21 109.72 269.14 108.75 266.72 108.75C262.94 108.75 260.61 111.84 260.61 116.05C260.61 120.26 262.77 123.06 266.28 123.06C268.52 123.06 269.9 122.22 270.58 120.8C270.58 121.33 270.64 122.38 270.7 122.74H272.97C272.94 121.42 272.94 120.16 272.94 118.88V102.96H270.58V102.95ZM266.78 121.06C264.63 121.06 263.07 119.28 263.07 115.98C263.07 112.68 264.56 110.76 266.97 110.76C270.05 110.76 270.68 112.68 270.68 115.71C270.68 118.74 269.98 121.06 266.78 121.06Z" fill="#FFEB66"/>
<path d="M286.63 113.22C286.63 110.11 284.78 108.75 281.44 108.74C277.51 108.74 276.35 110.91 276.17 112.79H278.45C278.7 111.72 279.08 110.59 281.37 110.59C283.93 110.59 284.31 112.06 284.31 113.27V114.43H281.98C277.92 114.43 275.52 115.82 275.52 118.87C275.52 120.95 276.9 123.04 280.12 123.04C282.77 123.04 283.86 121.84 284.34 120.93C284.37 121.76 284.46 122.41 284.56 122.72H286.82C286.74 122.33 286.63 120.98 286.63 119.74V113.21V113.22ZM284.33 116.51C284.33 118.99 283.89 121.21 280.6 121.21C278.91 121.21 277.94 120.17 277.94 118.75C277.94 116.82 279.4 116.07 282.12 116.07H284.33V116.51Z" fill="#FFEB66"/>
<path d="M301.69 102.95H299.33V110.49C298.96 109.72 297.89 108.75 295.47 108.75C291.69 108.75 289.36 111.84 289.36 116.05C289.36 120.26 291.52 123.06 295.03 123.06C297.27 123.06 298.65 122.22 299.33 120.8C299.33 121.33 299.39 122.38 299.45 122.74H301.72C301.69 121.42 301.69 120.16 301.69 118.88V102.96V102.95ZM295.53 121.06C293.38 121.06 291.82 119.28 291.82 115.98C291.82 112.68 293.31 110.76 295.72 110.76C298.8 110.76 299.43 112.68 299.43 115.71C299.43 118.74 298.73 121.06 295.53 121.06Z" fill="#FFEB66"/>
<path d="M323.2 102.95H320.84V110.49C320.47 109.72 319.4 108.75 316.98 108.75C313.2 108.75 310.87 111.84 310.87 116.05C310.87 120.26 313.03 123.06 316.54 123.06C318.78 123.06 320.16 122.22 320.84 120.8C320.84 121.33 320.9 122.38 320.96 122.74H323.23C323.2 121.42 323.2 120.16 323.2 118.88V102.96V102.95ZM317.03 121.06C314.88 121.06 313.31 119.28 313.31 115.98C313.31 112.68 314.8 110.76 317.21 110.76C320.29 110.76 320.92 112.68 320.92 115.71C320.92 118.74 320.22 121.06 317.02 121.06H317.03Z" fill="#FFEB66"/>
<path d="M337.95 115.2C337.95 112.29 336.51 108.75 332.1 108.75C327.95 108.75 325.9 111.99 325.9 116.05C325.9 119.57 327.65 123.06 331.95 123.06C335.69 123.06 337.16 120.72 337.7 118.97H335.32C334.88 119.97 334.18 121.08 332.02 121.08C329.7 121.08 328.3 119.1 328.29 116.33H337.92C337.96 115.96 337.96 115.61 337.96 115.2H337.95ZM328.36 114.67C328.6 112.29 329.66 110.62 332.06 110.62C334.46 110.62 335.53 112.43 335.55 114.67H328.36Z" fill="#FFEB66"/>
<path d="M140.09 131.21C143.15 131.21 144.65 132.75 145.29 134.85H147.78C147.24 131.5 144.5 129.14 140.15 129.14C134.49 129.14 131.41 133.36 131.41 138.97C131.41 144.58 134.28 148.41 139.69 148.41C143.08 148.41 144.7 146.95 145.51 145.62C145.55 146.97 145.62 147.8 145.75 148.16H147.66V138.04H139.96V140.17H145.24V140.37C145.24 143.54 144.2 146.33 140 146.33C135.8 146.33 134.02 142.73 134.02 138.87C134.02 134.7 135.75 131.23 140.1 131.23L140.09 131.21Z" fill="#FFEB66"/>
<path d="M153.68 137.27C153.68 135.94 153.64 134.87 153.61 134.48H151.3C151.3 135.21 151.33 136.28 151.33 138.19V148.14H153.69V141.51C153.69 138.06 155.49 136.59 158.29 136.51V134.16C156.03 134.23 154.4 135.42 153.69 137.27H153.68Z" fill="#FFEB66"/>
<path d="M170.17 138.64C170.17 135.53 168.32 134.17 164.98 134.16C161.05 134.16 159.89 136.33 159.71 138.21H161.99C162.24 137.14 162.62 136.01 164.91 136.01C167.47 136.01 167.85 137.48 167.85 138.69V139.85H165.52C161.46 139.85 159.06 141.25 159.06 144.3C159.06 146.38 160.44 148.47 163.66 148.47C166.31 148.47 167.4 147.27 167.88 146.36C167.91 147.19 168 147.84 168.1 148.15H170.36C170.28 147.76 170.17 146.41 170.17 145.17V138.64ZM167.87 141.93C167.87 144.41 167.43 146.63 164.14 146.63C162.45 146.63 161.48 145.59 161.48 144.17C161.48 142.24 162.94 141.49 165.66 141.49H167.87V141.93Z" fill="#FFEB66"/>
<path d="M180.57 134.16C177.93 134.16 176.81 135.56 176.27 136.73C176.27 136.32 176.24 134.89 176.18 134.48H173.89C173.92 135.54 173.92 136.74 173.92 137.92V148.14H176.28V140.91C176.28 138.16 177.32 136.2 179.89 136.2C181.98 136.2 182.78 137.59 182.78 139.66V148.15H185.14V139.36C185.14 135.73 183.14 134.16 180.57 134.16Z" fill="#FFEB66"/>
<path d="M203.1 131.21C206.06 131.21 207.42 132.75 208.09 134.79H210.58C210.03 131.66 207.63 129.14 203.21 129.14C197.51 129.14 194.68 133.75 194.68 138.84C194.68 143.93 197.51 148.39 203.12 148.39C207.38 148.39 209.75 146.02 210.58 142.84H208.08C207.38 144.66 206.11 146.32 203.22 146.32C198.89 146.32 197.29 142.44 197.29 138.76C197.29 135.08 198.98 131.21 203.12 131.21H203.1Z" fill="#FFEB66"/>
<path d="M223.47 138.64C223.47 135.53 221.62 134.17 218.28 134.16C214.35 134.16 213.19 136.33 213.01 138.21H215.29C215.54 137.14 215.92 136.01 218.21 136.01C220.77 136.01 221.15 137.48 221.15 138.69V139.85H218.82C214.76 139.85 212.36 141.25 212.36 144.3C212.36 146.38 213.74 148.47 216.96 148.47C219.61 148.47 220.7 147.27 221.18 146.36C221.21 147.19 221.3 147.84 221.4 148.15H223.66C223.58 147.76 223.47 146.41 223.47 145.17V138.64ZM221.17 141.93C221.17 144.41 220.73 146.63 217.44 146.63C215.75 146.63 214.78 145.59 214.78 144.17C214.78 142.24 216.24 141.49 218.96 141.49H221.17V141.93Z" fill="#FFEB66"/>
<path d="M233.87 134.16C231.23 134.16 230.11 135.56 229.57 136.73C229.57 136.32 229.54 134.89 229.48 134.48H227.19C227.22 135.54 227.22 136.74 227.22 137.92V148.14H229.58V140.91C229.58 138.16 230.62 136.2 233.19 136.2C235.28 136.2 236.08 137.59 236.08 139.66V148.15H238.44V139.36C238.44 135.73 236.44 134.16 233.87 134.16Z" fill="#FFEB66"/>
<path d="M252.11 138.64C252.11 135.53 250.26 134.17 246.92 134.16C242.99 134.16 241.83 136.33 241.65 138.21H243.93C244.18 137.14 244.56 136.01 246.85 136.01C249.41 136.01 249.79 137.48 249.79 138.69V139.85H247.46C243.4 139.85 241 141.25 241 144.3C241 146.38 242.38 148.47 245.6 148.47C248.25 148.47 249.34 147.27 249.82 146.36C249.85 147.19 249.94 147.84 250.04 148.15H252.3C252.22 147.76 252.11 146.41 252.11 145.17V138.64ZM249.81 141.93C249.81 144.41 249.37 146.63 246.08 146.63C244.39 146.63 243.42 145.59 243.42 144.17C243.42 142.24 244.88 141.49 247.6 141.49H249.81V141.93Z" fill="#FFEB66"/>
<path d="M258.2 137.27C258.2 135.94 258.16 134.87 258.13 134.48H255.82C255.82 135.21 255.85 136.28 255.85 138.19V148.14H258.21V141.51C258.21 138.06 260.01 136.59 262.81 136.51V134.16C260.55 134.23 258.92 135.42 258.21 137.27H258.2Z" fill="#FFEB66"/>
<path d="M267.14 134.49H264.78V148.15H267.14V134.49Z" fill="#FFEB66"/>
<path d="M267.14 128.37H264.78V131.32H267.14V128.37Z" fill="#FFEB66"/>
<path d="M280.84 138.64C280.84 135.53 278.99 134.17 275.65 134.16C271.72 134.16 270.56 136.33 270.38 138.21H272.66C272.91 137.14 273.29 136.01 275.58 136.01C278.14 136.01 278.52 137.48 278.52 138.69V139.85H276.19C272.13 139.85 269.73 141.25 269.73 144.3C269.73 146.38 271.11 148.47 274.33 148.47C276.98 148.47 278.07 147.27 278.55 146.36C278.58 147.19 278.67 147.84 278.77 148.15H281.03C280.95 147.76 280.84 146.41 280.84 145.17V138.64ZM278.53 141.93C278.53 144.41 278.09 146.63 274.8 146.63C273.11 146.63 272.14 145.59 272.14 144.17C272.14 142.24 273.6 141.49 276.32 141.49H278.53V141.93Z" fill="#FFEB66"/>
<path d="M241.58 67.36C253.1 67.36 263.23 61.26 268.91 52.13C274.59 61.26 284.71 67.36 296.24 67.36C313.97 67.36 328.4 52.93 328.4 35.2H315.73C315.73 45.95 306.99 54.69 296.24 54.69C285.49 54.69 276.75 45.95 276.75 35.2C276.75 24.45 285.49 15.71 296.24 15.71V3.03999C281.15 3.03999 268.46 13.49 265.01 27.53H238.85V40.2H260.43C258.22 48.53 250.61 54.69 241.59 54.69C230.84 54.69 222.1 45.95 222.1 35.2C222.1 24.45 230.84 15.71 241.59 15.71V3.03999C223.86 3.03999 209.43 17.47 209.43 35.2C209.43 52.93 223.86 67.36 241.59 67.36H241.58Z" fill="#FFEB66"/>
<path d="M200.76 67.14V19.74C200.76 15.84 199.94 12.4 198.29 9.41999C196.65 6.43999 194.36 4.11999 191.44 2.47999C188.52 0.829995 185.23 0.00999451 181.57 0.00999451C177.91 0.00999451 174.63 0.829995 171.7 2.47999C168.78 4.11999 166.49 6.43999 164.85 9.41999C163.2 12.41 162.38 15.85 162.38 19.74V47.88C162.38 49.1 161.98 50.11 161.19 50.9C160.4 51.69 159.42 52.09 158.27 52.09C157.12 52.09 156.14 51.69 155.35 50.9C154.56 50.11 154.16 49.1 154.16 47.88V19.74C154.16 15.84 153.34 12.4 151.69 9.41999C150.05 6.43999 147.76 4.11999 144.84 2.47999C141.92 0.829995 138.63 0.00999451 134.97 0.00999451C131.31 0.00999451 128.03 0.829995 125.1 2.47999C122.18 4.11999 119.89 6.43999 118.25 9.41999C116.61 12.41 115.78 15.85 115.78 19.74V49.32C115.52 58.27 108.39 62.11 108.39 62.11L114.54 74.83C120.34 72.31 130.08 64.44 130.39 49.53H130.4V18.36C130.4 17.02 130.83 15.91 131.68 15.02C132.53 14.14 133.63 13.7 134.97 13.7C136.31 13.7 137.41 14.14 138.26 15.02C139.11 15.9 139.54 17.02 139.54 18.36V46.5C139.54 50.15 140.35 53.44 141.96 56.37C143.57 59.29 145.8 61.59 148.63 63.27C151.46 64.94 154.67 65.78 158.27 65.78C161.87 65.78 165.06 64.96 167.86 63.31C170.66 61.67 172.89 59.37 174.53 56.41C176.17 53.46 177 50.15 177 46.5V18.36C177 17.02 177.43 15.91 178.28 15.02C179.13 14.14 180.23 13.7 181.57 13.7C182.91 13.7 184.01 14.14 184.86 15.02C185.71 15.9 186.14 17.02 186.14 18.36V67.14H200.76Z" fill="#FFEB66"/>
<path d="M34.23 53.52C30.88 53.52 27.15 52.73 24.44 51.14C21.73 49.56 19.6 47.36 18.05 44.56C16.5 41.76 15.72 38.65 15.72 35.24C15.72 31.83 16.5 28.73 18.05 25.92C19.6 23.12 21.73 20.93 24.44 19.34C27.15 17.76 30.18 16.96 33.53 16.96C36.15 16.96 38.63 17.46 40.97 18.47C43.31 19.47 45.37 20.86 47.14 22.63L56.46 12.22C53.6 9.11 50.19 6.69 46.23 4.96C42.27 3.22 38.04 2.36 33.53 2.36C27.01 2.36 21.21 3.82 16.13 6.74C11.04 9.66 7.09 13.64 4.26 18.66C1.42 23.7 0 29.23 0 35.25C0 41.27 1.42 46.8 4.25 51.83C7.08 56.85 11.04 60.83 16.12 63.75C21.2 66.67 27.71 68.13 34.22 68.13C38.73 68.13 45.72 67.05 49.68 64.57L46.64 51.18C40.88 53.34 36.83 53.51 34.22 53.51L34.23 53.52Z" fill="#FFEB66"/>
<path d="M95.4399 67.72C93.3299 68.49 89.9199 68.95 87.2999 68.95C83.9499 68.95 80.5699 68.16 77.8599 66.57C75.1499 64.99 73.0199 62.79 71.4699 59.99C69.9199 57.19 69.1399 54.08 69.1399 50.67C69.1399 47.26 69.9199 44.15 71.4699 41.35C73.0199 38.55 75.1499 36.36 77.8599 34.77C80.5699 33.19 83.5999 32.39 86.9499 32.39C89.5699 32.39 92.0499 32.89 94.3899 33.9C96.7299 34.9 98.7899 36.29 100.56 38.06L109.88 27.65C107.02 24.54 103.61 22.12 99.6499 20.39C95.6899 18.65 91.4599 17.79 86.9499 17.79C80.4299 17.79 74.6299 19.25 69.5499 22.17C64.4599 25.09 60.5099 29.07 57.6799 34.09C54.8499 39.11 53.4299 44.64 53.4299 50.67C53.4299 56.7 54.8499 62.22 57.6799 67.25C60.5099 72.27 64.4699 76.25 69.5499 79.17C74.6299 82.09 80.4299 83.55 86.9499 83.55C91.4599 83.55 97.3599 82.09 101.35 80.35C101.35 80.35 106.63 77.88 107.66 77.4C106.81 75.48 101.99 64.99 101.99 64.99C99.4999 66.36 97.5699 66.94 95.4599 67.71L95.4399 67.72Z" fill="#FFEB66"/>
</g>
<defs>
<clipPath id="clip0_147_14">
<rect width="337.95" height="148.47" fill="white"/>
</clipPath>
</defs>
</svg>
