<svg version="1.1" id="Layer_1" xmlns="http://www.w3.org/2000/svg" xmlns:xlink="http://www.w3.org/1999/xlink" x="0px" y="0px"
	 width="100%" viewBox="0 0 1628 640" enable-background="new 0 0 1628 640" xml:space="preserve">
<path fill="#010101" opacity="1.000000" stroke="none" 
	d="
M1.000000,454.000000 
	C1.000000,413.979095 1.000000,373.958221 1.338432,333.394043 
	C5.809577,330.326416 9.942291,327.802063 14.459578,325.227142 
	C19.882906,323.699005 24.921663,322.221405 30.357437,320.826630 
	C35.876312,319.082062 40.998173,317.254730 46.460739,315.347595 
	C48.242584,314.591705 49.683720,313.915619 51.516613,313.205902 
	C55.281319,312.395355 58.654266,311.618408 62.487801,310.916229 
	C68.295677,310.977051 73.642967,310.963135 79.423233,311.073273 
	C84.936310,309.965271 90.016418,308.733215 95.556381,307.448975 
	C100.993538,307.155762 105.970856,306.914703 111.365646,306.738861 
	C119.920303,306.731842 125.251152,303.232178 126.929718,296.720337 
	C127.490936,295.845062 127.899612,295.210022 128.688446,294.517761 
	C134.062851,291.699799 139.057114,288.939117 144.456039,286.119781 
	C149.888962,285.141235 154.917206,284.221344 160.280945,283.463196 
	C165.675568,284.569824 170.734695,285.514709 176.102722,286.707062 
	C183.368622,287.805603 187.752579,283.466766 192.474640,279.054718 
	C197.770370,273.808075 200.961090,266.590118 209.406937,265.039124 
	C215.207718,264.693268 220.610199,264.328979 226.277130,264.237061 
	C231.691498,264.658630 236.841400,264.807892 242.433502,265.020386 
	C247.922333,265.342926 252.968964,265.602264 258.411469,265.988831 
	C262.918671,264.831879 267.029999,263.547699 271.490479,262.237488 
	C272.907623,261.861664 273.975677,261.511932 275.431488,261.179443 
	C280.869507,258.407104 285.919708,255.617523 291.341125,252.738922 
	C297.733765,249.500427 303.115143,250.481018 308.272705,255.391983 
	C314.146088,255.104187 319.669708,254.586807 325.558411,254.040802 
	C330.845764,253.206558 335.768005,252.400940 340.954224,251.834869 
	C346.474060,253.689392 351.729858,255.304337 357.312195,257.128357 
	C362.668640,258.939026 367.735870,260.137085 373.398376,258.940308 
	C374.752380,259.530396 375.852783,260.444244 376.727570,260.263855 
	C380.361267,259.514648 387.579041,259.670227 390.373840,260.941528 
	C396.241394,258.718170 401.710693,256.410400 407.548462,253.997284 
	C412.263824,250.126862 417.167725,252.213287 422.177979,252.775299 
	C427.397797,257.090881 432.839813,253.388840 438.282928,254.220642 
	C443.423615,257.061646 448.598480,257.494934 454.231689,256.845947 
	C456.204834,258.063477 457.900848,259.085785 459.746429,260.431824 
	C463.264496,262.501862 466.632996,264.248108 470.309784,266.235718 
	C480.074921,268.991821 489.531769,271.506500 499.169739,274.306824 
	C507.691833,282.359863 509.118622,282.328156 516.548706,274.145386 
	C521.662170,274.372131 526.333496,274.673218 531.408081,274.996460 
	C537.309814,273.097748 542.276855,274.705811 547.342651,277.598938 
	C552.712341,278.287415 557.831726,278.696930 563.208252,279.402039 
	C570.805725,282.980713 575.976868,279.487915 580.912781,274.149231 
	C585.294495,270.142578 590.249695,271.267120 595.452271,271.746094 
	C600.885620,272.957825 605.930420,274.027161 611.087036,275.402832 
	C612.410645,277.227905 613.622253,278.746643 614.943481,280.592224 
	C619.014526,284.355804 622.976013,287.792603 627.156860,291.515198 
	C633.369202,295.149261 638.908875,294.059753 644.495850,290.008698 
	C649.208923,288.473724 653.580139,287.017517 658.257812,285.749817 
	C662.378418,289.376312 666.137024,292.879242 670.033997,296.220734 
	C671.629028,297.588379 673.485840,299.533142 675.288635,299.606110 
	C680.179077,299.803986 685.104309,299.140747 690.375977,298.918335 
	C692.159241,298.348846 693.582275,297.679871 695.329590,296.849335 
	C699.117371,295.513855 702.580933,294.339935 706.429321,293.057526 
	C709.303833,292.911377 713.050354,291.813446 714.066772,293.018433 
	C718.627808,298.425507 724.294250,297.568817 730.491577,297.251343 
	C733.286438,297.214905 735.653137,297.055237 738.358398,297.003632 
	C739.642944,297.154999 740.588806,297.198273 741.767700,297.503265 
	C742.897339,298.666351 743.653259,299.814789 744.717834,300.421509 
	C747.615234,302.072754 749.549744,306.387878 754.194336,304.272308 
	C755.598389,306.408997 756.812500,308.262756 758.953003,311.530884 
	C760.995117,305.047791 764.961121,302.828430 770.329224,302.921875 
	C770.602173,302.926636 770.893433,301.877899 771.514404,301.294861 
	C773.266602,301.146240 775.133667,301.555206 776.015381,300.805450 
	C779.640991,297.722168 782.326904,299.637207 785.109497,302.323944 
	C789.218384,308.653442 796.069641,308.264252 802.182190,310.296692 
	C809.346191,312.629547 814.885315,320.127014 823.479065,316.168243 
	C823.984680,315.935303 824.868286,316.108398 825.398071,316.407654 
	C829.932190,318.968567 834.041138,316.733368 838.209045,315.331573 
	C841.785889,314.128571 845.328918,312.825226 849.267456,311.613647 
	C853.904236,311.523163 858.160461,311.385345 862.517456,311.641357 
	C864.412109,312.689667 866.205994,313.344147 868.354370,314.062439 
	C872.476257,310.740356 876.243713,307.354492 880.198303,304.250305 
	C880.871643,305.327179 881.357910,306.122375 882.042297,307.241669 
	C883.826172,304.501343 885.368713,302.131714 887.596985,298.708740 
	C888.464783,301.961365 888.954163,303.795685 889.689819,306.553223 
	C890.822998,302.737671 891.658081,299.925781 892.839783,297.095612 
	C897.454102,298.490875 900.450500,300.983093 900.157776,305.896606 
	C904.414673,305.232025 908.196167,304.641693 912.089539,304.413300 
	C912.860962,306.924438 913.520508,309.073639 914.573914,312.505981 
	C916.974854,309.536072 918.739502,307.353210 920.669373,305.181549 
	C920.834595,305.192719 920.998901,304.905121 921.287476,304.905579 
	C922.049194,304.599915 922.522217,304.293823 923.390930,304.020386 
	C927.539795,304.406372 927.913635,300.687653 929.884338,299.211548 
	C933.946838,296.168671 939.182190,294.691467 944.334106,292.637817 
	C949.819092,291.817474 954.904968,290.929382 960.427490,290.104828 
	C965.631409,289.557617 970.398682,288.946869 975.610596,288.394501 
	C981.055359,287.370026 986.055420,286.287201 991.446777,285.173889 
	C994.845398,284.467499 997.923950,284.001556 1000.827148,283.018097 
	C1002.088501,282.590881 1002.989197,281.099396 1004.320679,279.900146 
	C1005.400452,279.086212 1006.213074,278.463348 1007.370239,278.020996 
	C1010.469360,275.240234 1013.223999,272.278900 1015.978638,269.317596 
	C1016.401550,269.597504 1016.824524,269.877441 1017.247437,270.157379 
	C1017.247437,272.091797 1017.247437,274.026184 1017.162109,276.350311 
	C1017.642151,278.922974 1018.207520,281.105927 1018.772888,283.288910 
	C1019.208435,283.232605 1019.644043,283.176331 1020.079651,283.120026 
	C1020.394775,282.111176 1020.709839,281.102356 1021.347046,280.024109 
	C1022.097168,279.857483 1022.525208,279.760223 1023.334473,279.849731 
	C1024.990479,280.508698 1026.265259,280.980865 1027.807983,281.552277 
	C1027.807983,274.214691 1027.807983,267.591064 1027.974365,260.667358 
	C1032.084229,256.515472 1036.027710,252.663651 1040.318115,248.890472 
	C1041.331909,248.486694 1042.478882,247.488754 1042.595337,247.597229 
	C1045.532471,250.333191 1048.361206,253.185379 1051.193848,256.368652 
	C1051.596436,257.764526 1052.014282,258.808838 1052.424072,259.807709 
	C1052.415894,259.762268 1052.331177,259.798737 1052.274048,260.134094 
	C1050.926147,266.380127 1049.549194,272.274353 1048.411133,278.214325 
	C1048.159302,279.529053 1048.277954,281.836823 1049.034912,282.268463 
	C1053.022339,284.541565 1052.315308,288.340027 1052.885254,291.833405 
	C1053.064209,292.930573 1054.272949,293.859711 1055.350830,294.987152 
	C1057.383179,297.104279 1059.075073,299.099976 1060.773193,301.103088 
	C1061.400024,300.267303 1062.348877,299.002106 1063.255981,297.792511 
	C1067.582397,300.916931 1071.686157,303.880615 1075.789917,306.844299 
	C1077.288086,307.246368 1078.696167,307.715729 1079.891846,308.506470 
	C1081.995972,309.897980 1083.969971,311.485809 1086.170654,313.225159 
	C1086.831055,313.759460 1087.319214,314.060028 1087.959229,314.669983 
	C1091.875488,321.070984 1091.875488,321.071075 1098.817261,318.173798 
	C1099.872314,317.733459 1100.926758,317.291992 1102.414307,316.897980 
	C1110.475464,318.788574 1117.356934,316.444214 1124.482666,313.097046 
	C1127.960815,312.152344 1131.026611,311.269531 1134.503662,310.308929 
	C1139.941406,309.477814 1144.968018,308.724426 1150.448975,308.042389 
	C1155.933472,308.418671 1160.963867,308.723633 1166.301636,309.257812 
	C1172.348267,311.059662 1177.997925,311.548645 1183.729004,308.167664 
	C1189.033936,307.943726 1193.932983,307.658844 1199.127319,307.582642 
	C1204.949097,308.864471 1210.475708,309.937622 1216.356934,311.176788 
	C1222.820435,311.808289 1228.929199,312.273773 1235.400391,312.845428 
	C1237.785889,311.984711 1239.831299,311.061432 1241.826904,310.040649 
	C1244.766602,308.537079 1247.684082,307.080597 1251.278809,309.286499 
	C1253.469238,309.802307 1255.701172,309.495483 1257.226440,310.391632 
	C1262.279663,313.360657 1265.304565,310.765533 1268.456177,306.858063 
	C1270.987305,305.715149 1273.148071,304.523712 1275.462158,303.941254 
	C1277.900024,303.327637 1280.484131,303.295868 1283.351074,302.985870 
	C1285.875000,301.014923 1288.052246,299.067993 1290.542480,296.978271 
	C1295.604980,294.488068 1299.542236,291.988647 1300.442749,285.726593 
	C1301.566650,277.911804 1307.012451,273.516022 1315.351685,272.513000 
	C1320.811523,271.902100 1325.840576,271.208344 1331.308105,270.418915 
	C1336.436768,270.588226 1341.126953,270.853271 1346.112305,271.442627 
	C1351.939819,271.502411 1357.472168,271.237915 1363.368408,271.153442 
	C1369.126343,272.129883 1375.095215,271.271606 1379.034912,276.869934 
	C1380.095947,277.776855 1381.033569,278.421692 1382.155273,279.352081 
	C1386.236694,281.483582 1390.134277,283.329559 1394.286255,285.434052 
	C1399.652588,287.810730 1404.764282,289.928864 1410.136108,292.342529 
	C1415.043579,293.249847 1419.691040,293.861694 1424.676147,294.686951 
	C1428.037598,295.713654 1431.018066,296.873932 1434.095459,297.258820 
	C1438.708740,297.835754 1443.390015,297.868378 1448.405273,298.120911 
	C1451.842285,296.389740 1454.916260,294.670166 1458.363159,292.942749 
	C1464.168457,290.878845 1469.600830,288.822784 1475.447754,286.834412 
	C1480.896606,286.202545 1485.930908,285.502960 1491.374023,284.788330 
	C1497.671631,281.897430 1502.677734,285.656250 1508.337524,287.103699 
	C1513.256958,289.135651 1517.717896,291.718811 1523.365479,290.089905 
	C1529.086548,291.297882 1534.434570,292.373871 1540.143799,293.669739 
	C1545.823364,294.528870 1551.047363,294.392517 1556.196289,292.333496 
	C1561.630615,292.654816 1566.867188,292.650665 1572.553711,292.574280 
	C1577.987915,291.910278 1582.972046,291.318573 1588.378540,290.788940 
	C1593.880371,290.486938 1598.959717,290.122864 1604.480713,289.776367 
	C1609.970337,290.947388 1615.018677,292.100800 1620.356201,293.487610 
	C1623.430420,294.147339 1626.215210,294.573669 1629.000000,295.000000 
	C1629.000000,368.354218 1629.000000,441.708466 1628.798950,515.898376 
	C1625.023071,515.187561 1621.448853,513.657654 1617.669067,516.958618 
	C1615.683350,516.871948 1614.039795,516.855835 1612.285645,516.494141 
	C1611.404297,514.734436 1610.633545,513.320312 1609.742432,511.685669 
	C1608.311523,512.865967 1607.002441,513.945618 1605.353760,515.031006 
	C1604.377686,515.623230 1603.741211,516.209656 1603.045654,516.437012 
	C1600.520996,511.400299 1594.753174,510.543945 1590.021606,513.763916 
	C1589.075562,512.353394 1588.048706,511.319977 1586.659912,510.164581 
	C1581.279053,507.059418 1576.838623,508.645203 1572.618652,511.402527 
	C1569.381226,506.095062 1568.832031,513.611572 1567.124023,512.669189 
	C1565.139038,509.743896 1563.517090,507.353516 1562.395996,505.701324 
	C1559.902344,507.024567 1557.933472,508.069305 1555.837036,508.768982 
	C1555.172729,508.061829 1554.643555,507.399231 1554.098389,507.386017 
	C1550.323608,507.294220 1546.545288,507.337646 1543.697876,507.337646 
	C1542.223755,508.167480 1540.494385,509.140930 1538.414185,510.111877 
	C1537.154663,510.663788 1536.245972,511.218201 1535.408203,511.729370 
	C1535.183228,510.469086 1534.913086,508.955780 1534.671265,507.601135 
	C1533.610840,507.666840 1532.793457,507.606964 1532.031006,507.783997 
	C1528.901855,508.510559 1525.531494,508.564514 1522.606445,510.946594 
	C1521.550415,509.968445 1520.845459,508.951355 1519.912598,507.605591 
	C1518.863647,508.780701 1518.073608,509.665894 1517.312134,510.519012 
	C1514.518066,508.941895 1511.857178,507.440063 1509.111694,505.584778 
	C1508.185303,503.455231 1507.343628,501.679138 1506.280396,499.435486 
	C1504.628540,502.459412 1503.443237,504.629181 1502.060059,507.161346 
	C1501.264893,505.897949 1500.756470,505.090118 1500.252075,504.277496 
	C1498.924316,505.685272 1497.592529,507.097809 1496.076050,508.706177 
	C1494.185059,504.826996 1492.497314,501.365082 1490.618042,497.510162 
	C1489.550049,498.688568 1488.927124,499.375824 1488.296143,500.072113 
	C1487.773193,497.987427 1487.262329,495.950439 1486.657349,493.538239 
	C1484.272705,497.439575 1482.050537,500.802734 1477.031250,499.434021 
	C1476.839722,499.381744 1476.345215,500.440338 1475.624756,501.151245 
	C1473.984009,502.425537 1471.728516,497.425812 1470.794434,502.277222 
	C1470.017334,503.232178 1469.459595,503.913666 1468.824463,504.207306 
	C1467.866699,501.669525 1466.986206,499.519623 1465.985962,497.077271 
	C1464.009033,499.038605 1462.005859,501.026031 1459.732666,502.831604 
	C1459.092285,501.649933 1458.721924,500.650085 1458.351440,499.650208 
	C1454.034424,501.375549 1452.948242,497.984528 1451.313843,494.853088 
	C1450.245728,496.738281 1449.328125,498.357727 1447.999512,500.702667 
	C1447.330444,499.339508 1446.832397,498.324707 1446.252441,497.143127 
	C1444.445923,499.206512 1443.223022,500.603424 1441.685547,501.912628 
	C1438.750122,502.674438 1436.129150,503.523956 1433.564331,504.355286 
	C1432.973755,503.049683 1432.513428,502.032013 1432.121826,500.653870 
	C1431.458862,499.517548 1430.726929,498.741699 1429.812500,497.846130 
	C1429.629883,497.726440 1429.228638,497.898438 1429.074829,497.577209 
	C1428.279907,495.837372 1427.638794,494.418823 1426.975830,492.951965 
	C1424.509277,494.956146 1422.390869,496.677429 1420.238525,498.426361 
	C1419.879639,497.618042 1419.378540,496.489380 1418.787354,495.157867 
	C1415.658325,496.548004 1412.832153,497.803589 1409.717651,498.780518 
	C1407.883179,498.801575 1406.337036,499.101288 1404.714233,499.037628 
	C1402.098877,497.185638 1399.559937,495.697052 1396.738281,494.046814 
	C1395.730591,494.601593 1395.005737,495.317993 1394.040771,496.343323 
	C1392.846191,497.696167 1391.891724,498.740173 1390.746826,499.992371 
	C1389.464966,498.435822 1388.256470,496.968384 1386.645630,495.012390 
	C1384.892334,497.877350 1383.307373,500.467194 1381.566528,503.312012 
	C1380.504150,501.992828 1379.618042,500.892517 1378.264282,499.211456 
	C1377.324829,502.076355 1376.530640,504.498779 1375.391235,506.865387 
	C1373.804321,505.393311 1372.562500,503.977051 1371.154419,502.371155 
	C1369.927979,503.855896 1368.766602,505.261688 1367.596680,506.677856 
	C1366.046143,504.893280 1364.688477,503.330780 1363.323853,501.760223 
	C1362.300049,502.704102 1361.530273,503.413788 1360.450928,504.408936 
	C1359.751587,502.592712 1359.217407,501.205353 1358.626953,499.672211 
	C1357.182617,501.630402 1355.969727,503.274811 1354.756714,504.919250 
	C1354.405273,504.843445 1354.053833,504.767609 1353.702393,504.691803 
	C1353.702393,501.943848 1353.702393,499.195892 1353.702393,495.911713 
	C1351.719971,497.667328 1350.440918,498.800079 1348.897705,499.698303 
	C1347.863037,498.277039 1347.092773,497.090332 1346.201050,495.716675 
	C1344.563843,497.480835 1343.041016,499.121887 1341.459351,500.826263 
	C1341.046997,499.491241 1340.691406,498.340149 1339.966797,495.994049 
	C1337.867432,499.284363 1336.404297,501.577545 1334.552002,503.840363 
	C1332.970825,501.098297 1331.778564,498.386536 1330.330078,495.091858 
	C1327.759033,498.506104 1325.840210,501.054321 1323.701538,503.894287 
	C1322.552368,501.631958 1321.503784,499.567841 1320.564209,497.718231 
	C1319.145996,500.500519 1317.742554,503.254211 1316.338867,506.007874 
	C1314.226807,504.280304 1312.114746,502.552765 1309.932983,500.768219 
	C1309.208008,501.914642 1308.162842,503.567566 1307.479126,504.648651 
	C1301.008423,505.058990 1300.210938,499.728027 1297.685669,495.247681 
	C1296.379761,498.835358 1295.342651,501.684753 1294.045532,505.248016 
	C1292.917358,503.465454 1292.180298,502.300934 1290.808594,500.133759 
	C1288.905151,502.010651 1287.281128,503.612152 1285.407471,505.393677 
	C1284.978271,506.163483 1284.798584,506.753265 1284.313232,507.304138 
	C1283.524292,506.209961 1283.041260,505.154663 1282.645142,504.289490 
	C1280.650391,505.856720 1278.626099,507.447235 1276.583496,509.052063 
	C1275.926514,507.648560 1275.316650,506.345917 1274.454102,504.503235 
	C1272.382080,507.996460 1270.663574,510.893677 1268.583008,513.686157 
	C1267.274414,512.277710 1266.327881,510.974060 1265.381226,509.670441 
	C1263.976440,512.139160 1262.571777,514.607910 1261.080078,517.229431 
	C1260.666382,515.308777 1260.225586,513.262817 1259.675049,510.707092 
	C1258.855469,512.313293 1258.218506,513.561584 1257.310913,515.340210 
	C1256.105225,513.301880 1255.112305,511.623322 1254.119385,509.580811 
	C1253.716675,508.813934 1253.314087,508.411041 1252.911499,508.008118 
	C1252.531494,508.635376 1252.151611,509.262665 1251.500854,510.092468 
	C1251.022705,511.163422 1250.815308,512.031860 1250.408569,513.191284 
	C1249.653931,515.265991 1249.098511,517.049622 1248.344482,519.470886 
	C1247.318848,516.066833 1246.501953,513.355591 1245.614868,510.411346 
	C1243.811279,513.248901 1243.969238,518.021179 1238.708374,515.842041 
	C1238.489258,515.751221 1237.595947,517.287842 1236.715820,517.917236 
	C1235.586060,516.547668 1234.757080,515.327087 1233.468750,513.430237 
	C1232.027222,517.256897 1230.952637,520.109436 1229.537109,522.999268 
	C1228.420532,522.166016 1227.644897,521.295532 1227.015137,520.588867 
	C1225.642700,521.718689 1224.375000,522.762268 1223.169189,523.480652 
	C1223.058350,522.561523 1222.885620,521.967529 1222.548706,520.808655 
	C1221.348145,523.008850 1220.411621,524.725098 1219.901001,525.660828 
	C1218.072876,525.050659 1216.541382,524.539490 1214.695923,523.931885 
	C1213.546021,523.125061 1212.709961,522.414734 1211.550781,521.861572 
	C1210.495972,522.324463 1209.764404,522.630127 1209.041504,522.581665 
	C1206.177368,519.677063 1203.304565,517.126587 1199.456909,513.710815 
	C1198.123169,518.050842 1197.232666,520.948181 1196.102295,523.885742 
	C1195.601196,524.153381 1195.298584,524.248291 1194.820435,523.874634 
	C1192.744263,521.629089 1190.802002,519.719482 1188.622314,517.576477 
	C1187.921509,518.652405 1187.258789,519.669617 1186.596069,520.686890 
	C1186.342407,520.335510 1186.088745,519.984131 1185.834961,519.632690 
	C1184.244629,520.477478 1182.654297,521.322266 1180.674683,522.249939 
	C1179.313354,522.311768 1178.303833,522.108215 1177.374878,522.298523 
	C1169.817993,523.847046 1169.822632,523.869446 1166.267456,517.885437 
	C1165.345581,519.997559 1164.516479,521.897034 1163.336182,523.882507 
	C1161.489990,523.981079 1159.994263,524.026245 1158.499878,523.999329 
	C1155.297363,523.941711 1152.095459,523.846802 1148.469238,523.847290 
	C1146.344971,523.876465 1144.643188,523.857727 1142.945068,523.767700 
	C1139.609497,523.591125 1136.275879,523.374756 1132.830444,522.865295 
	C1131.980957,521.487610 1131.242676,520.419495 1130.626953,519.528992 
	C1127.612793,522.924866 1124.655518,526.256592 1121.333496,529.999207 
	C1120.463867,528.596008 1119.671509,527.317566 1118.856201,525.707031 
	C1118.012085,526.139404 1117.191040,526.904053 1116.224365,527.919312 
	C1116.078857,528.363281 1116.079102,528.556519 1115.815674,528.909668 
	C1113.637573,531.179993 1111.723145,533.290405 1109.836670,535.369934 
	C1108.562012,532.987793 1107.594482,531.179810 1106.748535,529.598816 
	C1105.030762,530.434082 1103.545044,531.156494 1102.173828,531.533325 
	C1102.119629,530.028137 1101.950806,528.868469 1101.963623,528.955994 
	C1098.442993,529.587402 1095.337036,530.144531 1091.358032,530.858154 
	C1091.190186,531.113281 1090.299194,532.467163 1089.810791,533.209351 
	C1087.972778,532.813477 1086.515137,532.499512 1084.767822,532.174927 
	C1083.416138,531.735107 1082.354126,531.305847 1081.226074,530.849976 
	C1080.100952,531.757263 1078.846436,532.768921 1077.584106,533.786804 
	C1076.898193,532.666992 1076.172241,531.481995 1075.350586,530.140442 
	C1073.525635,531.738281 1071.827637,533.225037 1070.082764,534.351318 
	C1069.793213,532.766907 1069.550415,531.542908 1069.183594,529.693359 
	C1067.465210,531.047485 1066.286255,531.976562 1065.325928,532.733276 
	C1063.816528,531.417542 1062.355957,530.144287 1060.677979,528.681641 
	C1059.319580,530.817810 1058.293457,532.431335 1057.037842,534.405762 
	C1056.219849,533.348877 1055.672607,532.641663 1055.087402,531.570190 
	C1054.022217,529.015015 1052.994873,526.824097 1051.827393,524.334167 
	C1050.416626,526.430725 1049.341187,528.029053 1047.504272,530.759033 
	C1047.151489,529.271545 1046.941650,528.386963 1046.582275,526.872314 
	C1045.781860,528.933105 1045.501953,529.653564 1045.078979,530.742371 
	C1043.928955,528.705139 1043.109375,527.253418 1042.096191,525.458740 
	C1040.808350,527.298462 1039.894531,528.603821 1038.664062,529.783691 
	C1036.053711,527.813843 1033.760010,525.969604 1031.542114,524.186340 
	C1030.429565,525.919556 1029.545898,527.296448 1028.744385,528.545105 
	C1027.297852,527.565857 1025.979736,526.673523 1024.486694,525.662781 
	C1023.918762,526.780212 1023.407654,527.785645 1022.658081,528.580444 
	C1020.857056,526.525879 1019.294495,524.682068 1017.955139,523.101624 
	C1015.875305,524.452271 1014.081848,525.616882 1012.739441,526.488647 
	C1010.984680,525.486938 1009.532715,524.658142 1007.878052,523.558228 
	C1006.443848,524.800476 1005.212402,526.313843 1003.944092,527.872498 
	C1003.064575,526.668091 1001.927429,525.110840 1000.790222,523.553528 
	C1000.594482,523.907532 1000.398682,524.261536 1000.202942,524.615540 
	C998.559998,523.924133 996.917053,523.232727 996.431335,523.028320 
	C994.044006,523.471497 992.517578,523.754822 990.815918,523.735535 
	C989.641968,522.181641 988.643188,520.930359 988.476746,520.721863 
	C985.788452,522.576172 983.163330,524.386902 980.554260,526.186523 
	C979.833923,525.000488 978.962952,523.566406 977.851257,521.735962 
	C976.647461,523.116211 975.730042,524.168030 974.492981,525.385193 
	C973.475220,525.745056 972.334778,526.299194 972.152344,526.074646 
	C971.124817,524.810242 970.327759,523.358521 969.409180,521.902771 
	C968.064514,524.086426 966.923279,525.939758 965.987183,527.459900 
	C963.695557,526.438293 961.872192,525.625427 959.963257,524.395813 
	C954.569641,525.411377 949.261536,526.843750 943.635132,528.066528 
	C938.225830,525.604187 932.350159,524.289917 928.245239,520.857849 
	C923.272583,516.700195 918.381531,513.270142 911.708130,511.887970 
	C906.062195,509.184082 900.772827,506.565155 895.367615,504.212219 
	C890.306152,502.008942 885.122070,500.087402 879.676025,497.881470 
	C874.858459,494.803375 870.270752,492.562683 864.620361,495.688751 
	C858.449585,493.555634 853.644714,496.144104 848.632446,498.615601 
	C837.620544,497.378052 832.194397,505.913483 826.109863,510.985504 
	C822.470703,510.083130 819.697632,509.395477 816.593079,508.569550 
	C811.180420,508.921539 806.099304,509.411835 800.598389,509.819946 
	C798.253479,510.068604 796.331055,510.416962 794.402222,510.725342 
	C792.358093,511.052155 790.285522,511.703674 788.264465,511.579285 
	C781.838257,511.183838 775.430298,510.493195 768.725708,509.690460 
	C766.957153,509.342621 765.478088,509.220978 763.653076,508.878479 
	C760.214783,508.396301 757.122498,508.134949 753.593262,507.717102 
	C748.120972,507.311737 743.085449,507.062897 737.793213,506.551758 
	C726.870972,503.373749 716.049011,502.027649 704.535522,502.979431 
	C699.188477,502.580841 694.167114,501.602386 689.921143,505.733612 
	C689.396240,506.136261 689.127930,506.531738 688.571411,507.121735 
	C686.390381,514.764038 680.556152,518.014221 673.673706,520.604858 
	C671.498718,520.260254 669.771912,519.893616 668.031860,519.607422 
	C665.013611,519.111084 661.987305,518.664551 658.523254,518.136108 
	C656.288208,517.973511 654.493896,517.780090 652.700439,517.788269 
	C648.132568,517.809021 643.565125,517.919922 638.592407,517.895020 
	C637.440613,518.092529 636.693909,518.389832 635.697388,518.643799 
	C634.979309,518.764221 634.511047,518.927917 633.640991,519.043701 
	C622.109436,520.618286 611.483704,523.678406 601.587708,529.932617 
	C599.120667,530.248352 597.051941,530.586853 594.681946,530.772583 
	C593.942444,530.699402 593.504150,530.778992 592.764221,530.676453 
	C587.968140,531.375916 583.473816,532.257507 578.569214,533.079956 
	C573.455017,533.452576 568.751160,533.884399 563.634155,534.273865 
	C558.139893,534.792603 553.058777,535.353638 547.548340,535.938416 
	C542.100403,536.455078 537.081665,536.948059 531.615601,537.291138 
	C526.108521,537.447388 521.048828,537.753601 515.636230,537.957520 
	C510.965057,536.495422 506.646759,535.135681 502.155334,533.479980 
	C497.691406,529.730957 493.400635,526.277954 488.980682,522.495605 
	C485.683746,522.385010 482.516022,522.603760 479.298340,522.441101 
	C477.959137,518.848938 476.669800,515.638184 475.358856,512.373474 
	C472.910248,515.438171 470.925812,517.921936 468.640930,520.211792 
	C467.601379,519.131531 466.971466,518.115112 466.101349,517.384766 
	C464.054169,515.666443 460.416168,512.366821 460.008484,512.717163 
	C456.476929,515.751770 455.951935,512.537476 454.714233,510.322235 
	C453.704834,509.736572 452.695374,509.494293 451.685883,509.252014 
	C451.563049,509.670898 451.440186,510.089783 451.317352,510.508636 
	C450.700836,509.383392 450.084320,508.258118 449.467804,507.132843 
	C449.152802,507.530304 448.837830,507.927795 448.522858,508.325287 
	C447.008545,507.566711 445.494202,506.808105 443.821655,505.733032 
	C441.442383,504.278381 439.221344,503.140228 436.597534,502.201599 
	C427.720428,503.092224 425.853424,496.115692 422.515198,489.892242 
	C421.405426,491.575195 420.634064,492.744965 419.483032,493.986145 
	C417.148743,493.367737 415.194092,492.677979 412.907288,491.870972 
	C412.607269,492.143555 411.871368,492.812225 410.977783,493.624146 
	C410.036865,492.034393 409.293304,490.778046 408.385040,489.243469 
	C407.545227,490.936005 406.774139,492.489990 405.596313,494.010254 
	C398.815247,494.420532 396.774200,489.058777 393.541870,485.006927 
	C392.252197,486.709259 391.092773,488.239655 389.504517,489.931519 
	C384.038910,489.684174 379.002167,489.275391 373.553711,488.783539 
	C368.075958,489.504211 362.947357,491.063995 357.972717,487.259064 
	C357.585419,488.202942 357.231445,489.065521 356.526123,490.000549 
	C352.436371,490.478241 348.697906,490.883514 344.908295,490.945679 
	C343.462555,489.983521 342.626923,487.121490 340.363525,489.955994 
	C339.620178,490.886871 336.811493,491.107697 335.515411,490.480042 
	C331.791046,488.676483 330.247986,490.438538 328.641357,493.523926 
	C326.968994,493.734955 325.720795,493.878693 324.495697,494.133606 
	C323.726288,494.293732 322.672729,495.071533 322.291412,494.801880 
	C319.045074,492.506195 317.743622,495.329407 315.801575,496.770996 
	C315.067230,496.176758 314.111603,495.464417 314.048767,495.535980 
	C310.394501,499.697693 305.325378,497.918884 300.697449,498.415894 
	C297.663391,498.535889 294.824615,498.970154 291.625977,499.459473 
	C291.066040,498.616882 290.266418,497.413574 289.397522,496.106049 
	C288.762695,497.043427 288.137787,497.966217 287.509094,498.889526 
	C286.899048,497.940918 286.292725,496.991760 285.305725,495.446655 
	C284.984192,496.955383 284.820374,497.723999 284.352356,498.774109 
	C282.436035,498.105743 280.823944,497.155853 278.898376,496.021271 
	C278.739441,496.220123 277.997070,497.148987 277.086792,498.287933 
	C276.323059,497.275177 275.701019,496.450287 275.516693,496.205841 
	C273.718994,497.158783 272.251465,497.936707 270.687134,498.380615 
	C269.882538,497.436188 269.174744,496.825714 268.446045,496.197205 
	C267.789032,497.158417 267.183624,498.044159 266.972687,498.352783 
	C263.642578,498.528564 261.564209,494.341949 258.239685,497.545563 
	C257.960022,497.815033 256.490326,496.640167 255.516434,496.476990 
	C254.931488,496.378998 254.235825,496.941711 253.279846,497.396912 
	C252.360809,498.747894 251.751831,499.909393 251.105606,501.141907 
	C248.382462,498.134888 246.726608,496.306396 244.883743,494.271423 
	C243.857346,495.789856 243.181458,496.789734 242.505569,497.789612 
	C242.401932,497.375366 242.298294,496.961121 242.194656,496.546906 
	C240.808990,496.669434 239.423325,496.791962 237.914612,496.571655 
	C235.921631,497.674683 234.051697,499.120636 231.887360,500.794220 
	C230.806534,500.141266 229.307709,499.235809 227.545059,498.170959 
	C226.214142,500.317505 224.924759,502.397064 223.301514,504.677246 
	C222.498138,506.868896 222.028580,508.859924 221.319763,511.074524 
	C220.984192,512.158936 220.887863,513.019714 220.500473,514.109497 
	C215.370102,514.874817 212.357864,511.337189 208.465866,509.020569 
	C207.248169,511.689545 206.047028,514.322205 204.564026,517.159851 
	C200.203278,522.594116 200.203278,522.594116 195.055740,517.838867 
	C192.555496,519.320374 190.273911,520.672363 187.688019,521.831665 
	C184.098969,520.009888 180.814224,518.380615 177.211990,516.593872 
	C176.864914,516.853699 175.956833,517.533569 174.671341,518.358154 
	C172.927826,518.455139 171.533005,518.567932 170.201111,518.329346 
	C166.447372,517.657043 162.719498,516.840332 158.612427,516.023193 
	C156.093124,514.032410 153.942810,512.099060 151.777954,510.152588 
	C150.329117,511.175385 148.697037,512.327576 147.774628,512.978760 
	C145.443497,511.097168 143.767258,509.744202 141.880981,508.112610 
	C136.517593,506.332703 131.264572,503.429504 126.243355,503.786530 
	C122.426445,504.057953 120.856956,502.568451 118.593842,500.843262 
	C116.175522,498.999786 113.699493,497.232025 110.953072,495.221497 
	C107.736984,494.666260 104.648750,494.788177 101.951462,493.820435 
	C99.961098,493.106232 96.616287,494.665161 95.876953,490.647919 
	C94.211639,489.851044 92.669563,489.406158 91.078735,488.563629 
	C86.342773,486.152710 81.655556,484.139465 76.786209,481.832825 
	C74.009758,476.425415 68.314468,476.982147 64.121109,474.395020 
	C63.883850,473.464050 63.679852,472.869598 63.333187,471.859375 
	C62.067936,473.506989 61.057587,474.822662 59.973602,476.234222 
	C58.484890,474.937988 57.377815,473.133789 56.157825,473.053894 
	C50.118717,472.658417 46.489235,469.257507 43.736816,464.322723 
	C43.017086,463.032318 41.848957,461.992004 40.741314,460.662231 
	C39.765621,462.423218 39.016262,463.775726 38.259403,465.141754 
	C35.825768,463.492004 34.844479,459.716675 30.675182,461.017883 
	C27.723536,459.070160 27.470966,461.321320 26.531609,462.922455 
	C24.733124,462.156342 23.261608,461.413055 21.602062,460.574768 
	C20.978708,461.441437 20.182627,462.548248 19.304728,463.768799 
	C18.231647,461.179077 17.264351,458.844635 16.271030,456.157166 
	C16.029621,454.701782 15.814237,453.599426 15.384361,451.399231 
	C13.937453,455.109039 12.919138,457.719940 11.729226,460.770813 
	C9.214799,458.854797 8.485909,453.821259 5.029285,457.842346 
	C3.495147,456.379364 2.247573,455.189697 1.000000,454.000000 
z"/>
</svg>